<svg width="311" height="147" viewBox="0 0 311 147" fill="none" xmlns="http://www.w3.org/2000/svg">
<path d="M30 66C26.6068 66.1305 23.118 66.8892 20.1111 68.5C17.7481 69.7659 14.8407 69.192 12.7778 70.4444C8.79073 72.8651 6.16866 75.4778 3.94444 79.5556C0.221102 86.3817 0.880266 96.9914 6.38888 102.5C13.7219 109.833 21.5726 110 31.8889 110C37.0215 110 40.6181 109.457 45.5555 108.222C50.4394 107.001 54.1509 103.938 59.4444 106.056C69.0194 109.886 70.7537 122.551 68 131.5C66.9876 134.79 63.6128 136.871 62.2222 140C61.4404 141.759 57.6119 147.533 55.5555 142.833C52.9062 136.778 54.2 130.153 55.7778 124C56.2679 122.089 57.5381 120.792 58 118.944C59.0392 114.788 63.0848 115.967 65 113.333C66.8005 110.858 69.0321 110.207 71.2222 108.222C74.5177 105.236 77.6352 100.734 81.7778 99C82.8929 98.5332 89.8066 93.4933 90.4444 94.2222C92.1914 96.2187 89.6651 98.2285 89.2222 100C88.5249 102.789 89 106.082 89 108.944C89 112.566 89.6431 116.69 90 110.444C90.2222 106.556 93.2364 103.45 93.9444 99.5556C94.7833 94.942 94 104.317 94 105.778C94 109.685 94 113.593 94 117.5C94 120.95 91.9412 128.906 96.5555 124.556C99.6551 121.633 103.491 120.896 106.556 118.389C110.187 115.418 113.788 112.212 117 109C119.56 106.44 118 99.9596 118 96.5C118 92.9954 108.404 93.9038 106 94C102.529 94.1388 100.06 99 96.6111 99C91.4767 99 107.805 96.7057 112 99.6667C117.008 103.201 120.402 115 126 115C129.99 115 131.958 112.71 135.556 112.056C139.184 111.396 138 108.305 138 105C138 100.407 138 95.8148 138 91.2222C138 86.7772 136.457 78.8474 139.111 75.0556C141.238 72.0169 143.789 68.2217 148 68C157.701 67.4894 158.094 77.7468 159.111 84.6111C159.416 86.6722 161.555 99.9057 162 92.7778C162.556 83.8889 167.23 76.1496 170.833 68.2222C172.99 63.4771 173.217 57.6011 176.889 53.6667C182.018 48.1713 184.229 53.5542 186 59.3333C187.529 64.3227 191 69.2943 191 74.5556C191 75.1544 190.606 79.1414 192.222 78.3333C194.355 77.2672 195.478 73.2186 196.889 71.4444C198.549 69.3569 200.876 67.9167 202.444 65.7778C206.555 60.1721 211.348 53.4092 217.833 50.1667C218.476 49.8455 218.361 43.1662 217.778 42C214.046 34.5371 211.3 37.0944 207.167 42.7778C203.464 47.8694 200.046 60.4955 203.611 66.8333C204.678 68.7301 214.803 70 216.778 70C222.509 70 228.268 69.6529 231.944 64.4444C236.264 58.3248 243.188 54.666 247 47.8889C250.192 42.2134 250 37.4538 250 31.2222C250 25.7369 249.6 26 244.5 26C239.299 26 235.56 28.025 234.222 33.7778C232.796 39.9124 230.442 46.0062 231.056 52.4444C231.504 57.1511 235.761 58.1123 238 61.2222C241.953 66.7118 259.135 69.4719 263.222 63C266.389 57.9855 266.081 51.4316 268.5 46.0556C270.908 40.7034 268.948 34.9938 271.556 29.7778C272.323 28.2423 271.021 22.7094 272.667 22.1111C275.765 20.9843 279.239 25.0433 281 27.0556C284.588 31.1561 285.718 36.4379 288.556 40.7778C289.315 41.9389 289 43.4996 289 40.9444C289 38.0843 290 35.4033 290 32.5556C290 28.5163 291.214 23.9217 292.222 20C294.06 12.8542 300.936 2 309 2" stroke="black" stroke-width="3" stroke-linecap="round"/>
</svg>
